<?xml version="1.0" encoding="UTF-8"?>
<svg version="1.1" xmlns="http://www.w3.org/2000/svg" width="850" height="638">
<path d="M0 0 C11.25078667 9.74967093 18.93441127 22.24111901 20.10498047 37.29248047 C20.20212133 40.1397646 20.22755459 42.9753376 20.2109375 45.82421875 C20.20529785 46.83943604 20.1996582 47.85465332 20.19384766 48.90063477 C19.6973765 79.7482065 2.35669026 107.76316066 -17.1015625 130.63671875 C-17.69066406 131.13816406 -18.27976562 131.63960937 -18.88671875 132.15625 C-19.28761719 132.64480469 -19.68851563 133.13335937 -20.1015625 133.63671875 C-19.65934462 136.66075461 -18.65129104 138.53341794 -16.73828125 140.87890625 C-16.26326172 141.47058594 -15.78824219 142.06226563 -15.29882812 142.671875 C-14.55149414 143.58259766 -14.55149414 143.58259766 -13.7890625 144.51171875 C-4.1015625 156.44466577 -4.1015625 156.44466577 -4.1015625 159.63671875 C-3.4415625 159.63671875 -2.7815625 159.63671875 -2.1015625 159.63671875 C6.63010649 172.09704639 13.42330554 187.17729615 17.8984375 201.63671875 C18.37796875 203.11591797 18.37796875 203.11591797 18.8671875 204.625 C23.7060972 221.89721935 22.18664841 240.15737618 13.7109375 255.88671875 C5.29776283 269.46619258 -6.96152115 276.65815251 -22.1015625 280.88671875 C-45.33242088 285.4425938 -69.1592257 277.80848322 -88.42651367 264.9387207 C-98.80606805 257.78400313 -98.80606805 257.78400313 -102.1015625 254.63671875 C-102.1015625 253.97671875 -102.1015625 253.31671875 -102.1015625 252.63671875 C-102.66359375 252.38921875 -103.225625 252.14171875 -103.8046875 251.88671875 C-106.49248819 250.42397008 -108.56561732 248.66867002 -110.8515625 246.63671875 C-111.65078125 245.93546875 -112.45 245.23421875 -113.2734375 244.51171875 C-115.1015625 242.63671875 -115.1015625 242.63671875 -115.1015625 240.63671875 C-115.7615625 240.63671875 -116.4215625 240.63671875 -117.1015625 240.63671875 C-118.7265625 238.63671875 -118.7265625 238.63671875 -120.1015625 236.63671875 C-124.11565704 238.01297974 -126.82465376 239.97976572 -130.1015625 242.63671875 C-130.7615625 242.63671875 -131.4215625 242.63671875 -132.1015625 242.63671875 C-132.1015625 243.29671875 -132.1015625 243.95671875 -132.1015625 244.63671875 C-133.70288086 245.96191406 -133.70288086 245.96191406 -135.94140625 247.46484375 C-136.75802734 248.01785156 -137.57464844 248.57085937 -138.41601562 249.140625 C-139.28162109 249.71683594 -140.14722656 250.29304688 -141.0390625 250.88671875 C-142.28526367 251.72783203 -142.28526367 251.72783203 -143.55664062 252.5859375 C-146.06645123 254.27737406 -148.58346094 255.95765707 -151.1015625 257.63671875 C-151.91383301 258.18263672 -152.72610352 258.72855469 -153.56298828 259.29101562 C-157.35862036 261.83770138 -161.16187334 264.31653268 -165.1015625 266.63671875 C-166.09671875 267.26449219 -167.091875 267.89226562 -168.1171875 268.5390625 C-182.86013435 277.8157235 -195.77937191 282.74576656 -213.5390625 280.19921875 C-223.29308873 277.65704186 -233.55861677 269.95860762 -239.1015625 261.63671875 C-239.63136719 260.84652344 -240.16117187 260.05632812 -240.70703125 259.2421875 C-253.84287273 236.57069812 -252.3933038 202.00999532 -252.94384766 176.60668945 C-253.08013413 174.04024208 -253.3247283 171.52800234 -253.60644531 168.97485352 C-254.16273902 163.57311698 -254.24607581 158.22745516 -254.234375 152.80078125 C-254.23533173 151.8001767 -254.23628845 150.79957214 -254.23727417 149.76864624 C-254.23795026 147.66607602 -254.23613614 145.56350363 -254.23193359 143.4609375 C-254.22658865 140.27729503 -254.23189235 137.09379434 -254.23828125 133.91015625 C-254.24398187 116.01432806 -254.24398187 116.01432806 -253.33789062 107.14941406 C-253.00649138 103.62590064 -252.94480237 100.10990042 -252.86206055 96.57324219 C-252.18230931 69.81059477 -251.10673838 38.72051664 -241.1015625 13.63671875 C-240.4415625 13.63671875 -239.7815625 13.63671875 -239.1015625 13.63671875 C-238.9984375 13.05921875 -238.8953125 12.48171875 -238.7890625 11.88671875 C-237.99259785 9.28010717 -236.91090973 7.66318765 -235.1015625 5.63671875 C-234.4415625 5.63671875 -233.7815625 5.63671875 -233.1015625 5.63671875 C-232.8746875 5.05019531 -232.6478125 4.46367187 -232.4140625 3.859375 C-229.04551323 -1.84510279 -221.2231317 -5.24680922 -215.1015625 -7.23828125 C-198.18782622 -11.48662945 -185.29595261 -7.72255724 -170.65966797 0.95776367 C-168.12684893 2.49698093 -165.61000863 4.05815047 -163.1015625 5.63671875 C-162.49683105 6.01521973 -161.89209961 6.3937207 -161.26904297 6.78369141 C-157.80953307 8.97118095 -154.45002825 11.28374282 -151.1015625 13.63671875 C-149.68375544 14.61872307 -148.26577283 15.60047396 -146.84765625 16.58203125 C-145.32748659 17.64101123 -143.80795368 18.70090586 -142.2890625 19.76171875 C-141.58297852 20.25285156 -140.87689453 20.74398437 -140.14941406 21.25 C-135.56662392 24.47981714 -131.30879826 27.92995155 -127.1015625 31.63671875 C-122.5604961 30.24917068 -120.97159562 28.32676133 -118.1015625 24.63671875 C-115.53433317 22.18562599 -112.81859854 19.91921199 -110.1015625 17.63671875 C-109.27398437 16.92128906 -108.44640625 16.20585937 -107.59375 15.46875 C-92.95089217 3.06714592 -74.56786546 -8.02089375 -55.3515625 -11.05078125 C-54.56080322 -11.17598145 -53.77004395 -11.30118164 -52.95532227 -11.43017578 C-34.17869027 -14.24179328 -15.40107561 -11.73507651 0 0 Z M-93.1015625 53.63671875 C-94.38185703 56.2754573 -94.38185703 56.2754573 -95.1015625 58.63671875 C-94.10520063 59.6611033 -93.10416963 60.68094588 -92.1015625 61.69921875 C-91.5446875 62.26769531 -90.9878125 62.83617187 -90.4140625 63.421875 C-88.49023158 65.26446306 -86.53196169 66.99703936 -84.51171875 68.73046875 C-79.28614167 73.2754746 -74.42372547 78.16863645 -69.5390625 83.07421875 C-68.63220703 83.97720703 -67.72535156 84.88019531 -66.79101562 85.81054688 C-62.19496473 90.41326355 -57.72549754 95.06399701 -53.50390625 100.01391602 C-51.79781684 101.98821551 -49.98343901 103.8301173 -48.1015625 105.63671875 C-44.90401057 104.27452911 -43.27404869 102.91824629 -41.296875 100.07421875 C-40.54978271 99.01037964 -40.54978271 99.01037964 -39.78759766 97.92504883 C-39.27245605 97.1698999 -38.75731445 96.41475098 -38.2265625 95.63671875 C-37.69208496 94.86287842 -37.15760742 94.08903809 -36.60693359 93.29174805 C-25.49921419 77.10161108 -16.42968612 60.85597377 -18.1015625 40.63671875 C-19.26378401 35.4975205 -22.03957878 31.94298457 -26.1015625 28.63671875 C-50.15370252 18.71651628 -77.39690775 36.49299205 -93.1015625 53.63671875 Z M-206.41796875 36.3359375 C-230.88280596 69.76932292 -217.54881313 161.74875252 -214.1015625 200.63671875 C-213.99972656 201.79655273 -213.89789063 202.95638672 -213.79296875 204.15136719 C-213.49296526 207.35973785 -213.15382433 210.56012239 -212.7890625 213.76171875 C-212.6492395 215.11281738 -212.6492395 215.11281738 -212.5065918 216.49121094 C-211.55033822 223.79967 -208.82293379 229.10521058 -203.4140625 234.13671875 C-197.74527025 236.70371901 -192.54790079 236.39285967 -186.6640625 234.57421875 C-178.44595247 230.45554065 -170.95278047 224.91374708 -163.609375 219.43359375 C-161.1015625 217.63671875 -161.1015625 217.63671875 -158.28125 216.02734375 C-157.56195313 215.5684375 -156.84265625 215.10953125 -156.1015625 214.63671875 C-156.1015625 213.97671875 -156.1015625 213.31671875 -156.1015625 212.63671875 C-155.4415625 212.43046875 -154.7815625 212.22421875 -154.1015625 212.01171875 C-149.98549987 210.12519004 -146.6427922 207.43103896 -143.1015625 204.63671875 C-143.69323725 200.94203862 -144.73477616 198.06583465 -146.4765625 194.76171875 C-150.72124509 186.66296854 -153.355881 178.70645755 -155.7265625 169.88671875 C-156.03851563 168.77039063 -156.35046875 167.6540625 -156.671875 166.50390625 C-159.87155483 154.67060758 -160.28820679 143.23759447 -160.28686523 131.04956055 C-160.28904871 128.83818198 -160.30726776 126.62730637 -160.32617188 124.41601562 C-160.41142323 103.14943418 -155.06063527 84.24232461 -147.1015625 64.63671875 C-169.97737787 44.2776036 -169.97737787 44.2776036 -197.4765625 34.32421875 C-198.61867188 34.28683594 -199.76078125 34.24945313 -200.9375 34.2109375 C-204.14704857 34.38584911 -204.14704857 34.38584911 -206.41796875 36.3359375 Z M-117.1015625 90.63671875 C-117.29492188 91.21679688 -117.48828125 91.796875 -117.6875 92.39453125 C-120.1015625 99.63671875 -120.1015625 99.63671875 -121.1328125 102.47265625 C-128.53490221 126.64883636 -123.75324854 154.80676908 -114.1015625 177.63671875 C-113.4415625 177.63671875 -112.7815625 177.63671875 -112.1015625 177.63671875 C-112.1015625 176.97671875 -112.1015625 176.31671875 -112.1015625 175.63671875 C-111.5353418 175.39501953 -110.96912109 175.15332031 -110.38574219 174.90429688 C-107.6493351 173.38576058 -105.77086912 171.56519994 -103.5546875 169.35546875 C-102.71035156 168.51371094 -101.86601562 167.67195313 -100.99609375 166.8046875 C-99.68705078 165.48404297 -99.68705078 165.48404297 -98.3515625 164.13671875 C-97.01931641 162.81607422 -97.01931641 162.81607422 -95.66015625 161.46875 C-94.82097656 160.62699219 -93.98179687 159.78523438 -93.1171875 158.91796875 C-91.96138184 157.7587793 -91.96138184 157.7587793 -90.78222656 156.57617188 C-88.88326681 154.81253346 -88.88326681 154.81253346 -89.1015625 152.63671875 C-88.1115625 152.30671875 -87.1215625 151.97671875 -86.1015625 151.63671875 C-84.42106007 149.97881283 -84.42106007 149.97881283 -82.7890625 147.94921875 C-80.52100629 145.24109194 -78.23184088 142.8035938 -75.6015625 140.44921875 C-72.81257052 137.96355216 -72.81257052 137.96355216 -73.1875 135.23046875 C-74.30926001 132.04735487 -75.75893406 130.61200309 -78.2265625 128.32421875 C-81.14229345 125.54164717 -83.93185538 122.77310972 -86.5390625 119.69921875 C-90.78184772 114.76922184 -95.24600167 109.96855364 -100.1015625 105.63671875 C-100.7615625 105.63671875 -101.4215625 105.63671875 -102.1015625 105.63671875 C-102.7615625 104.31671875 -103.4215625 102.99671875 -104.1015625 101.63671875 C-104.7615625 101.63671875 -105.4215625 101.63671875 -106.1015625 101.63671875 C-106.1015625 100.97671875 -106.1015625 100.31671875 -106.1015625 99.63671875 C-107.85678198 97.89978717 -107.85678198 97.89978717 -110.0390625 96.13671875 C-114.00035404 92.83913567 -114.00035404 92.83913567 -115.1015625 90.63671875 C-115.7615625 90.63671875 -116.4215625 90.63671875 -117.1015625 90.63671875 Z M-49.80078125 167.10546875 C-50.45691406 167.77578125 -51.11304688 168.44609375 -51.7890625 169.13671875 C-52.75392578 170.11125 -52.75392578 170.11125 -53.73828125 171.10546875 C-55.6146626 173.11521274 -57.41005492 175.15278219 -59.19921875 177.23828125 C-63.83954107 182.56958307 -68.84551583 187.52650167 -73.8515625 192.51171875 C-74.80615784 193.46988449 -75.76058593 194.42821688 -76.71484375 195.38671875 C-77.62105469 196.29164063 -78.52726563 197.1965625 -79.4609375 198.12890625 C-80.28045898 198.9472998 -81.09998047 199.76569336 -81.94433594 200.60888672 C-84.1015625 202.63671875 -84.1015625 202.63671875 -87.1015625 204.63671875 C-87.1015625 205.29671875 -87.1015625 205.95671875 -87.1015625 206.63671875 C-88.4215625 207.29671875 -89.7415625 207.95671875 -91.1015625 208.63671875 C-91.1015625 212.88973721 -89.14114335 214.3233949 -86.359375 217.38671875 C-82.23231926 221.49949402 -77.68188291 225.04746182 -73.1015625 228.63671875 C-72.46734375 229.18328125 -71.833125 229.72984375 -71.1796875 230.29296875 C-66.84043638 233.90261128 -62.10362769 236.17787374 -56.9765625 238.44921875 C-55.95429565 238.90288818 -55.95429565 238.90288818 -54.91137695 239.36572266 C-46.06872813 243.12758981 -34.20457748 244.91467438 -24.9765625 241.51171875 C-20.68086057 238.71017401 -18.70470415 235.44614371 -17.1015625 230.63671875 C-16.2270695 221.60506969 -17.97543487 214.06809881 -21.1015625 205.63671875 C-21.48699219 204.59 -21.87242187 203.54328125 -22.26953125 202.46484375 C-24.47323738 196.84503654 -26.99218759 191.87085075 -30.484375 186.94921875 C-33.02390546 183.31781287 -35.28149579 179.51020665 -37.5859375 175.7265625 C-38.08609375 175.03691406 -38.58625 174.34726562 -39.1015625 173.63671875 C-39.7615625 173.63671875 -40.4215625 173.63671875 -41.1015625 173.63671875 C-41.5965625 171.65671875 -41.5965625 171.65671875 -42.1015625 169.63671875 C-42.7615625 169.63671875 -43.4215625 169.63671875 -44.1015625 169.63671875 C-44.7615625 168.31671875 -45.4215625 166.99671875 -46.1015625 165.63671875 C-48.2237148 165.41873982 -48.2237148 165.41873982 -49.80078125 167.10546875 Z " fill="#2F9ED2" transform="translate(541.1015625,184.36328125)"/>
<path d="M0 0 C0 0.66 0 1.32 0 2 C1.65 2.33 3.3 2.66 5 3 C5 3.66 5 4.32 5 5 C6.36125 5.433125 6.36125 5.433125 7.75 5.875 C15.8372093 8.6744186 15.8372093 8.6744186 18 13 C18.556875 13.12375 19.11375 13.2475 19.6875 13.375 C23.97217363 14.5330199 27.28900402 17.42128234 30.6875 20.1875 C32.95025024 22.1702703 32.95025024 22.1702703 36 23 C36 23.66 36 24.32 36 25 C36.5775 25.103125 37.155 25.20625 37.75 25.3125 C40.35661158 26.10896465 41.9735311 27.19065277 44 29 C44 29.66 44 30.32 44 31 C45.98 31.495 45.98 31.495 48 32 C48 32.66 48 33.32 48 34 C48.99 34 49.98 34 51 34 C49.65662765 37.85963834 47.95394127 40.52169571 45.3125 43.625 C40.62986415 49.31594064 36.30464598 55.39070804 33 62 C29.15199046 61.45028435 27.64690561 59.72962142 25 57 C22.86690808 55.76487921 22.86690808 55.76487921 21 55 C21 54.34 21 53.68 21 53 C20.01 53 19.02 53 18 53 C18 52.34 18 51.68 18 51 C16.68 51 15.36 51 14 51 C12.25 49.625 12.25 49.625 11 48 C11 47.34 11 46.68 11 46 C10.01 46 9.02 46 8 46 C8 45.34 8 44.68 8 44 C7.443125 43.896875 6.88625 43.79375 6.3125 43.6875 C3.5230899 42.85821592 1.3860936 41.65700944 -1 40 C-1 39.34 -1 38.68 -1 38 C-2.65 37.67 -4.3 37.34 -6 37 C-6 36.34 -6 35.68 -6 35 C-6.7425 34.855625 -7.485 34.71125 -8.25 34.5625 C-11 34 -11 34 -12.85546875 33.421875 C-15.47793257 32.90598048 -17.44057603 33.19317044 -20.0625 33.6875 C-20.91972656 33.83574219 -21.77695312 33.98398438 -22.66015625 34.13671875 C-25.51664963 35.19061697 -26.30981299 36.53744267 -28 39 C-28.66 39 -29.32 39 -30 39 C-30.18755859 40.55847656 -30.18755859 40.55847656 -30.37890625 42.1484375 C-30.83921323 45.8486908 -31.36446422 49.53683006 -31.90234375 53.2265625 C-38.82051638 101.8403883 -39.33301926 152.11979818 -35 201 C-34.89816406 202.15983398 -34.79632813 203.31966797 -34.69140625 204.51464844 C-34.39140276 207.7230191 -34.05226183 210.92340364 -33.6875 214.125 C-33.547677 215.47609863 -33.547677 215.47609863 -33.4050293 216.85449219 C-32.49920213 223.7775521 -30.01686784 229.24172083 -24.8125 234 C-19.34655012 235.94344885 -14.05943418 235.63655238 -8.5625 233.9375 C-0.32204195 229.80762173 7.17699315 224.25658282 14.4921875 218.69921875 C16.93706698 217.04264153 19.22377531 215.98013667 22 215 C22 214.34 22 213.68 22 213 C23.828125 211.5625 23.828125 211.5625 26.25 210 C27.03890625 209.484375 27.8278125 208.96875 28.640625 208.4375 C30.72070886 207.17016414 32.80311715 206.0480542 35 205 C34.62746094 204.22914063 34.25492187 203.45828125 33.87109375 202.6640625 C33.39800781 201.66117188 32.92492187 200.65828125 32.4375 199.625 C31.96183594 198.62726563 31.48617187 197.62953125 30.99609375 196.6015625 C30.66738281 195.74304688 30.33867187 194.88453125 30 194 C30.33 193.34 30.66 192.68 31 192 C33.66735273 194.48952921 35.55746343 196.63408134 37 200 C40.74267698 198.30551328 43.33426123 196.01843832 46.31640625 193.2421875 C48 192 48 192 51 192 C51.2475 191.401875 51.495 190.80375 51.75 190.1875 C53.19977853 187.65038758 54.63286034 186.69081404 57 185 C58.6857124 183.35259924 60.3563186 181.68933922 62 180 C61.62875 178.9275 61.2575 177.855 60.875 176.75 C60 173 60 173 62 169 C62.99 173.455 62.99 173.455 64 178 C66.97551195 177.65921487 68.59845299 177.37899793 70.80859375 175.29296875 C71.34613281 174.59816406 71.88367188 173.90335938 72.4375 173.1875 C75.34458151 169.65034288 78.17857757 167.54761495 82 165 C87.41297697 159.9826559 92.46120582 154.62985168 97.26171875 149.02734375 C99.2921605 146.65925551 101.36263267 144.32922935 103.4375 142 C104.11683594 141.236875 104.79617188 140.47375 105.49609375 139.6875 C105.99238281 139.130625 106.48867188 138.57375 107 138 C114.92870668 145.84405856 122.33059078 154.05592472 129 163 C128.34 164.32 127.68 165.64 127 167 C126.34 167 125.68 167 125 167 C124.67 167.99 124.34 168.98 124 170 C123.34 170 122.68 170 122 170 C121.814375 170.845625 121.62875 171.69125 121.4375 172.5625 C119.41143515 177.40743768 115.76873393 181.61563304 111 184 C110.86287598 184.60473145 110.72575195 185.20946289 110.58447266 185.83251953 C109.84581969 188.57176809 108.66110359 189.69733423 106.6484375 191.6796875 C105.96136719 192.36160156 105.27429688 193.04351562 104.56640625 193.74609375 C103.84324219 194.44863281 103.12007812 195.15117187 102.375 195.875 C101.67503906 196.56980469 100.97507812 197.26460937 100.25390625 197.98046875 C88.05328978 210 88.05328978 210 85 210 C84.73356689 210.59619141 84.46713379 211.19238281 84.19262695 211.80664062 C82.97341864 214.04888576 81.7902232 215.37975718 79.91796875 217.09375 C79.31533203 217.64933594 78.71269531 218.20492187 78.09179688 218.77734375 C77.14916992 219.63005859 77.14916992 219.63005859 76.1875 220.5 C75.26227539 221.35271484 75.26227539 221.35271484 74.31835938 222.22265625 C69.64280353 226.50568403 65.14032722 230.57120945 59.4375 233.4375 C55.65018607 235.46574746 53.60433392 237.55855875 51 241 C48.25 242.3125 48.25 242.3125 46 243 C46 243.66 46 244.32 46 245 C44.39868164 246.32519531 44.39868164 246.32519531 42.16015625 247.828125 C40.93522461 248.65763672 40.93522461 248.65763672 39.68554688 249.50390625 C38.81994141 250.08011719 37.95433594 250.65632813 37.0625 251.25 C35.81629883 252.09111328 35.81629883 252.09111328 34.54492188 252.94921875 C32.03511127 254.64065531 29.51810156 256.32093832 27 258 C26.18772949 258.54591797 25.37545898 259.09183594 24.53857422 259.65429688 C20.74294214 262.20098263 16.93968916 264.67981393 13 267 C12.00484375 267.62777344 11.0096875 268.25554687 9.984375 268.90234375 C-4.75857185 278.17900475 -17.67780941 283.10904781 -35.4375 280.5625 C-45.19152623 278.02032311 -55.45705427 270.32188887 -61 262 C-61.52980469 261.20980469 -62.05960937 260.41960937 -62.60546875 259.60546875 C-75.74131023 236.93397937 -74.2917413 202.37327657 -74.84228516 176.9699707 C-74.97857163 174.40352333 -75.2231658 171.89128359 -75.50488281 169.33813477 C-76.06117652 163.93639823 -76.14451331 158.59073641 -76.1328125 153.1640625 C-76.13376923 152.16345795 -76.13472595 151.16285339 -76.13571167 150.13192749 C-76.13638776 148.02935727 -76.13457364 145.92678488 -76.13037109 143.82421875 C-76.12502615 140.64057628 -76.13032985 137.45707559 -76.13671875 134.2734375 C-76.14241937 116.37760931 -76.14241937 116.37760931 -75.23632812 107.51269531 C-74.90492888 103.98918189 -74.84323987 100.47318167 -74.76049805 96.93652344 C-74.08074681 70.17387602 -73.00517588 39.08379789 -63 14 C-62.34 14 -61.68 14 -61 14 C-60.896875 13.4225 -60.79375 12.845 -60.6875 12.25 C-59.89103535 9.64338842 -58.80934723 8.0264689 -57 6 C-56.34 6 -55.68 6 -55 6 C-54.77699219 5.41734375 -54.55398438 4.8346875 -54.32421875 4.234375 C-51.64879471 -0.27990981 -46.58890628 -2.7023908 -42 -5 C-39.28389704 -5.58573351 -37.77634546 -5.48284269 -35 -5 C-34.505 -4.505 -34.505 -4.505 -34 -4 C-33.21625 -4.33 -32.4325 -4.66 -31.625 -5 C-20.29528392 -8.12543892 -10.52747907 -3.99318172 0 0 Z " fill="#5D52E5" transform="translate(363,184)"/>
<path d="M0 0 C0.06058594 0.56460938 0.12117188 1.12921875 0.18359375 1.7109375 C1.3496683 4.98040969 3.42725703 6.40857905 6.0625 8.625 C7.74268809 10.04361603 9.39785098 11.49380546 11 13 C11 13.66 11 14.32 11 15 C11.55268555 15.22816406 12.10537109 15.45632812 12.67480469 15.69140625 C15.67246403 17.37845518 17.7676506 19.50812518 20.203125 21.9375 C20.6857782 22.41823975 21.1684314 22.89897949 21.66571045 23.39428711 C22.67999064 24.40721093 23.69176804 25.42264638 24.70117188 26.44042969 C26.25171972 28.00173165 27.81270503 29.55202497 29.375 31.1015625 C30.36001734 32.08790061 31.34441453 33.0748585 32.328125 34.0625 C33.2243457 34.96097656 34.12056641 35.85945313 35.04394531 36.78515625 C37 39 37 39 37 41 C38.485 41.495 38.485 41.495 40 42 C41.82421875 43.84765625 41.82421875 43.84765625 43.6875 46.0625 C44.62142578 47.16271484 44.62142578 47.16271484 45.57421875 48.28515625 C46.27998047 49.13400391 46.27998047 49.13400391 47 50 C48.65 49.34 50.3 48.68 52 48 C50.95125002 50.62187494 50.35068687 51.79371361 47.875 53.25 C47.25625 53.4975 46.6375 53.745 46 54 C46.66 54 47.32 54 48 54 C49.37212301 55.53195272 50.6715446 57.12921081 51.9375 58.75 C55.44758688 63.14187532 59.06270312 67.36804442 62.875 71.5 C63.33898193 72.00370117 63.80296387 72.50740234 64.28100586 73.02636719 C66.47678386 75.39666801 68.69233309 77.73818078 71 80 C71 79.34 71 78.68 71 78 C74.6619613 79.22065377 74.89999101 80.51209551 76.6328125 83.76953125 C78.98948673 87.61427692 81.98843365 90.94895749 84.87109375 94.40625 C91 101.8733945 91 101.8733945 91 105 C91.66 105 92.32 105 93 105 C101.73166899 117.46032764 108.52486804 132.5405774 113 147 C113.3196875 147.98613281 113.639375 148.97226562 113.96875 149.98828125 C118.8076597 167.2605006 117.28821091 185.52065743 108.8125 201.25 C100.39932533 214.82947383 88.14004135 222.02143376 73 226.25 C49.76914162 230.80587505 25.9423368 223.17176447 6.67504883 210.30200195 C-3.70450555 203.14728438 -3.70450555 203.14728438 -7 200 C-7 199.34 -7 198.68 -7 198 C-7.84304688 197.62875 -7.84304688 197.62875 -8.703125 197.25 C-11.39092569 195.78725133 -13.46405482 194.03195127 -15.75 192 C-16.54921875 191.29875 -17.3484375 190.5975 -18.171875 189.875 C-20 188 -20 188 -20 186 C-20.66 186 -21.32 186 -22 186 C-23.625 184 -23.625 184 -25 182 C-26.65 182.33 -28.3 182.66 -30 183 C-27.36354061 180.11637255 -24.95603996 177.87875082 -21.5625 175.9375 C-17.29514683 173.38034562 -13.5867185 170.2827138 -9.8125 167.0625 C-9.21832275 166.56032959 -8.62414551 166.05815918 -8.01196289 165.54077148 C-4.25398604 162.29354671 -1.08247903 158.89518537 2 155 C2.680625 155.70125 3.36125 156.4025 4.0625 157.125 C6.76042739 159.84618539 9.66593452 162.26095775 12.64453125 164.66796875 C13.09183594 165.10753906 13.53914063 165.54710937 14 166 C14 166.66 14 167.32 14 168 C14.58523438 168.27328125 15.17046875 168.5465625 15.7734375 168.828125 C17.94422708 169.97064583 19.70505744 171.23038589 21.625 172.75 C35.47124376 183.26288878 48.51678648 188.05835518 66 187 C69.56109666 186.40149636 71.91590785 185.29895726 74.30078125 182.44140625 C78.34630267 175.75447909 77.93878194 168.16176591 76.26953125 160.76171875 C75.29846635 157.45217104 74.19897991 154.23373084 73 151 C72.61457031 149.95328125 72.22914063 148.9065625 71.83203125 147.828125 C69.26290799 141.27644498 66.09165995 135.70166149 62 130 C60.86751148 128.35931048 59.7423442 126.71354037 58.625 125.0625 C58.12226563 124.33160156 57.61953125 123.60070312 57.1015625 122.84765625 C56 121 56 121 56 119 C55.34 119 54.68 119 54 119 C53.67 117.68 53.34 116.36 53 115 C52.34 115 51.68 115 51 115 C50.34 114.01 49.68 113.02 49 112 C45.76306158 113.40653212 43.76640127 115.05834724 41.3984375 117.66015625 C40.74359375 118.37107422 40.08875 119.08199219 39.4140625 119.81445312 C38.74117188 120.55630859 38.06828125 121.29816406 37.375 122.0625 C36.03116966 123.53485957 34.6849311 125.00502587 33.3359375 126.47265625 C32.74345215 127.12500244 32.1509668 127.77734863 31.54052734 128.44946289 C30 130 30 130 28 131 C27.67 130.01 27.34 129.02 27 128 C27.7425 127.5875 28.485 127.175 29.25 126.75 C33.0853549 124.30931961 35.43150125 122.21452006 37.375 118.0625 C39.39812515 114.24968722 41.58038355 112.58371021 45 110 C43.57918195 105.64334798 41.44390457 103.00113025 38.3125 99.6875 C37.42175781 98.73359375 36.53101563 97.7796875 35.61328125 96.796875 C34.75089844 95.87390625 33.88851562 94.9509375 33 94 C31.10985568 91.86541079 29.24005547 89.71506414 27.375 87.55859375 C26.2934584 86.33264177 25.156004 85.156004 24 84 C23.51273437 84.54785156 23.02546875 85.09570312 22.5234375 85.66015625 C17.6486283 91.11107927 12.71846428 96.5093988 7.75 101.875 C7.16009277 102.51703369 6.57018555 103.15906738 5.96240234 103.82055664 C2.8265594 107.19431251 -0.31519586 110.2113302 -4 113 C-8.20499771 116.48337734 -12.19660742 120.0813531 -16 124 C-16.33 123.01 -16.66 122.02 -17 121 C-16.58492188 120.65710938 -16.16984375 120.31421875 -15.7421875 119.9609375 C-6.41449972 112.03825708 2.4864704 103.26572569 10.33203125 93.8671875 C13.12104682 90.74505766 16.26459739 87.97412044 19.375 85.17578125 C21.24059131 83.12181977 21.24059131 83.12181977 21.03515625 80.5234375 C19.72290569 77.32451727 17.97274351 75.64936765 15.4375 73.3125 C13.92578436 71.90926941 12.43800494 70.47867578 11 69 C11 68.34 11 67.68 11 67 C10.01 66.67 9.02 66.34 8 66 C6.45703125 64.3984375 6.45703125 64.3984375 4.8125 62.375 C1.7278675 58.728337 -1.56956294 55.62917353 -5.19921875 52.53515625 C-7.25230462 50.78491168 -9.20626569 49.0179511 -11 47 C-11 46.34 -11 45.68 -11 45 C-11.556875 44.773125 -12.11375 44.54625 -12.6875 44.3125 C-15.66159588 42.62449964 -17.72008865 40.53323483 -20 38 C-20 37.34 -20 36.68 -20 36 C-22.27426046 36.84429676 -22.27426046 36.84429676 -22.8515625 39.50390625 C-23.10679687 40.51324219 -23.36203125 41.52257812 -23.625 42.5625 C-23.88539063 43.57441406 -24.14578125 44.58632813 -24.4140625 45.62890625 C-24.60742188 46.41136719 -24.80078125 47.19382812 -25 48 C-26.41655367 42.71383631 -26.91192107 38.16851589 -24.1875 33.25 C-22 30 -22 30 -20.49853516 28.50976562 C-18.95986517 26.95956438 -17.94590088 25.46936581 -16.8359375 23.59375 C-16.24208252 22.60858398 -16.24208252 22.60858398 -15.63623047 21.60351562 C-15.01192139 20.56227539 -15.01192139 20.56227539 -14.375 19.5 C-10.09571166 12.48623527 -5.42636415 6.18657942 0 0 Z " fill="#1B74CB" transform="translate(446,239)"/>
<path d="M0 0 C11.25078667 9.74967093 18.93441127 22.24111901 20.10498047 37.29248047 C20.20212133 40.1397646 20.22755459 42.9753376 20.2109375 45.82421875 C20.20529785 46.83943604 20.1996582 47.85465332 20.19384766 48.90063477 C19.96741849 62.96950857 16.8404506 78.7236991 8.8984375 90.63671875 C8.2384375 90.63671875 7.5784375 90.63671875 6.8984375 90.63671875 C6.2384375 92.61671875 5.5784375 94.59671875 4.8984375 96.63671875 C4.2384375 95.97671875 3.5784375 95.31671875 2.8984375 94.63671875 C3.2764923 89.86159579 4.47845324 85.52368459 5.8359375 80.94921875 C9.16279781 68.857014 9.25240609 56.0951456 9.8984375 43.63671875 C9.2384375 43.63671875 8.5784375 43.63671875 7.8984375 43.63671875 C7.76308594 42.78851563 7.62773438 41.9403125 7.48828125 41.06640625 C5.26503711 28.95172263 1.45155861 17.22705516 -8.59765625 9.3203125 C-16.76534402 3.82846628 -23.55778695 0.99213756 -33.484375 0.7421875 C-36.1015625 0.63671875 -36.1015625 0.63671875 -38.1015625 -0.36328125 C-38.1015625 -1.02328125 -38.1015625 -1.68328125 -38.1015625 -2.36328125 C-51.13917637 -2.14636168 -63.47461337 -1.06699943 -76.20703125 1.796875 C-80.1015625 2.63671875 -80.1015625 2.63671875 -83.1015625 2.63671875 C-82.7715625 1.64671875 -82.4415625 0.65671875 -82.1015625 -0.36328125 C-80.76822917 -0.69661458 -79.43489583 -1.02994792 -78.1015625 -1.36328125 C-77.7715625 -2.35328125 -77.4415625 -3.34328125 -77.1015625 -4.36328125 C-54.28231271 -17.02777183 -20.73946072 -15.8027377 0 0 Z " fill="#98E3CA" transform="translate(541.1015625,184.36328125)"/>
<path d="M0 0 C1.43569336 0.86395386 1.43569336 0.86395386 2.90039062 1.74536133 C10.63372256 6.44420106 18.14470923 11.41404967 25.50927734 16.66943359 C27.45390619 18.05627306 29.4078328 19.42924812 31.36328125 20.80078125 C32.63849359 21.69985067 33.91325188 22.59956452 35.1875 23.5 C35.76886719 23.90951904 36.35023438 24.31903809 36.94921875 24.7409668 C39.1208493 26.29078627 41.16786077 27.78247909 43.01171875 29.71875 C44.57324343 31.39498843 44.57324343 31.39498843 48.375 32 C44.745 36.62 41.115 41.24 37.375 46 C37.375 42.16235973 38.64035335 40.88513915 40.875 37.8125 C41.5246875 36.91144531 42.174375 36.01039063 42.84375 35.08203125 C43.3490625 34.39496094 43.854375 33.70789063 44.375 33 C43.385 33 42.395 33 41.375 33 C41.045 32.34 40.715 31.68 40.375 31 C38.89 30.505 38.89 30.505 37.375 30 C35.70833333 28.33333333 34.04166667 26.66666667 32.375 25 C30.89 24.505 30.89 24.505 29.375 24 C29.375 23.34 29.375 22.68 29.375 22 C28.818125 21.896875 28.26125 21.79375 27.6875 21.6875 C24.8980899 20.85821592 22.7610936 19.65700944 20.375 18 C20.375 17.34 20.375 16.68 20.375 16 C19.83875 15.9175 19.3025 15.835 18.75 15.75 C15.5383325 14.73578921 13.12720387 12.9145766 10.375 11 C9.715 10.67 9.055 10.34 8.375 10 C8.375 9.34 8.375 8.68 8.375 8 C7.281875 7.71125 6.18875 7.4225 5.0625 7.125 C1.375 6 1.375 6 -1.625 4 C-1.625 3.34 -1.625 2.68 -1.625 2 C-3.935 1.34 -6.245 0.68 -8.625 0 C-8.625 -0.66 -8.625 -1.32 -8.625 -2 C-9.98625 -2.2165625 -9.98625 -2.2165625 -11.375 -2.4375 C-13.83976956 -2.86409473 -16.21347107 -3.35074221 -18.625 -4 C-18.625 -4.66 -18.625 -5.32 -18.625 -6 C-19.388125 -5.814375 -20.15125 -5.62875 -20.9375 -5.4375 C-23.625 -5 -23.625 -5 -26.625 -6 C-31.09858474 -6.22747041 -34.64784734 -6.09464711 -38.9375 -4.8125 C-40.154375 -4.544375 -41.37125 -4.27625 -42.625 -4 C-44.35546875 -5.44921875 -44.35546875 -5.44921875 -45.625 -7 C-28.1029363 -11.52759894 -15.36439472 -9.39437875 0 0 Z " fill="#0A6285" transform="translate(369.625,185)"/>
<path d="M0 0 C0.66 0 1.32 0 2 0 C3.18400453 7.42158744 3.1100784 14.74369022 3.0625 22.24609375 C3.05808468 23.62557298 3.05427071 25.00505426 3.05102539 26.38453674 C3.03775165 31.47103289 3.01354373 36.55746572 2.98962402 41.6439209 C2.96978131 45.95265933 2.95418875 50.26137402 2.94406128 54.57014656 C2.93765223 56.57351031 2.92507785 58.57685134 2.91235352 60.58018494 C2.89660243 66.46823425 3.00990438 72.19950715 3.7729187 78.03916931 C4.13596333 81.17403356 4.11130411 84.28875086 4.09765625 87.44140625 C4.0962413 88.09455307 4.09482635 88.74769989 4.09336853 89.42063904 C4.0878559 91.46797648 4.07532135 93.51519669 4.0625 95.5625 C4.05747366 96.96679527 4.05291276 98.3710923 4.04882812 99.77539062 C4.03711593 103.18363903 4.02071372 106.5917964 4 110 C3.67 110 3.34 110 3 110 C1.36095206 99.32231876 0.66752519 88.75348254 0.34204102 77.95922852 C0.29454712 76.43640259 0.29454712 76.43640259 0.24609375 74.8828125 C0.21020142 73.54307373 0.21020142 73.54307373 0.17358398 72.17626953 C0.02900212 69.53068574 -0.21668737 66.94121778 -0.50708008 64.30957031 C-1.06303552 58.91762869 -1.14449224 53.58096261 -1.1328125 48.1640625 C-1.13376923 47.16345795 -1.13472595 46.16285339 -1.13571167 45.13192749 C-1.13638776 43.02935727 -1.13457364 40.92678488 -1.13037109 38.82421875 C-1.12502615 35.64057628 -1.13032985 32.45707559 -1.13671875 29.2734375 C-1.14250909 9.56428451 -1.14250909 9.56428451 0 0 Z " fill="#6221A8" transform="translate(288,289)"/>
<path d="M0 0 C0 0.66 0 1.32 0 2 C2.475 2.495 2.475 2.495 5 3 C5 3.66 5 4.32 5 5 C6.11375 5.433125 6.11375 5.433125 7.25 5.875 C9.56739797 6.82302644 11.77917115 7.84845911 14 9 C14 9.66 14 10.32 14 11 C14.99 11 15.98 11 17 11 C17 11.66 17 12.32 17 13 C17.99 13.33 18.98 13.66 20 14 C20 14.66 20 15.32 20 16 C21.32 16 22.64 16 24 16 C24 16.66 24 17.32 24 18 C24.99 18 25.98 18 27 18 C27.495 18.99 27.495 18.99 28 20 C30.01669827 21.13350534 30.01669827 21.13350534 32 22 C32 22.66 32 23.32 32 24 C34.33214148 25.20628008 36.49642139 26.1654738 39 27 C39.2784375 25.7934375 39.2784375 25.7934375 39.5625 24.5625 C41.53232435 19.68076139 44.65622186 16.02326247 48 12 C48.609375 13.83984375 48.609375 13.83984375 49 16 C47.34909572 18.41739555 45.67107689 20.41896634 43.45703125 22.3359375 C41.59389231 24.463812 41.14018255 26.33609171 40.4375 29.0625 C39.21581638 33.76287596 38.13150926 35.24566049 34 38 C34.165 37.2575 34.33 36.515 34.5 35.75 C35.11925696 32.80993422 35.11925696 32.80993422 35 29 C33.76651453 27.49980807 33.76651453 27.49980807 31.9921875 26.30078125 C31.3420166 25.81818848 30.6918457 25.3355957 30.02197266 24.83837891 C29.31347168 24.33483887 28.6049707 23.83129883 27.875 23.3125 C27.15231934 22.78575684 26.42963867 22.25901367 25.68505859 21.71630859 C7.62956823 7.60479253 7.62956823 7.60479253 -13.125 0.4375 C-14.76855469 0.31181641 -14.76855469 0.31181641 -16.4453125 0.18359375 C-17.28835938 0.12300781 -18.13140625 0.06242188 -19 0 C-16.57337008 -2.42662992 -14.65777286 -2.67815803 -11.30859375 -3.046875 C-7.27130293 -2.96489955 -3.70176943 -1.5166972 0 0 Z " fill="#004A76" transform="translate(357,219)"/>
<path d="M0 0 C0.33 0 0.66 0 1 0 C1.33 1.98 1.66 3.96 2 6 C1.34 6 0.68 6 0 6 C0.185625 7.11375 0.37125 8.2275 0.5625 9.375 C1 13 1 13 0 15 C-0.66 15 -1.32 15 -2 15 C-2.81419391 24.43366028 -3.27051553 33.84933103 -3.5625 43.3125 C-3.60585709 44.65039916 -3.64947567 45.98828988 -3.69335938 47.32617188 C-3.7981277 50.55070824 -3.90030017 53.77530363 -4 57 C-3.34 57 -2.68 57 -2 57 C-1.22279544 60.33087667 -0.8467178 63.599537 -0.5625 67 C-0.21643707 70.72429631 0.54639276 73.54768281 2 77 C2.29920391 79.01962641 2.50400854 81.03934304 2.7109375 83.0703125 C3.08281734 85.55286171 4.04834454 87.68883675 5 90 C4.505 90.99 4.505 90.99 4 92 C4.66 92 5.32 92 6 92 C6 94.97 6 97.94 6 101 C1.91224565 96.15810314 0.95686249 90.45326943 -0.625 84.4375 C-0.93695313 83.30763672 -1.24890625 82.17777344 -1.5703125 81.01367188 C-4.74570756 69.12647098 -5.18664944 57.64762331 -5.18530273 45.4128418 C-5.18748621 43.20146323 -5.20570526 40.99058762 -5.22460938 38.77929688 C-5.27777361 25.44734163 -3.53895402 12.88179265 0 0 Z " fill="#3E3FBE" transform="translate(385,270)"/>
<path d="M0 0 C0.99 0.33 1.98 0.66 3 1 C2.7834375 2.81371094 2.7834375 2.81371094 2.5625 4.6640625 C0.06214828 26.34415844 1.17638059 45.99539214 7 67 C6.34 66.67 5.68 66.34 5 66 C5 65.01 5 64.02 5 63 C4.34 63 3.68 63 3 63 C0.40498501 53.38033978 -2 44.04329695 -2 34 C-5.63 34 -9.26 34 -13 34 C-13 33.67 -13 33.34 -13 33 C-9.7 33 -6.4 33 -3 33 C-2.90912109 30.72222656 -2.90912109 30.72222656 -2.81640625 28.3984375 C-2.73196519 26.39061682 -2.64731899 24.38280475 -2.5625 22.375 C-2.50352539 20.87646484 -2.50352539 20.87646484 -2.44335938 19.34765625 C-2.23422825 14.48937935 -1.96788253 9.77892 -1 5 C-0.814375 4.05125 -0.62875 3.1025 -0.4375 2.125 C-0.293125 1.42375 -0.14875 0.7225 0 0 Z " fill="#334EC9" transform="translate(417,286)"/>
<path d="M0 0 C4.70478962 3.42166518 8.27653164 7.57905197 12 12 C11.67 12.66 11.34 13.32 11 14 C8.36 11.36 5.72 8.72 3 6 C1.80375 7.340625 0.6075 8.68125 -0.625 10.0625 C-4.80141696 14.69633405 -9.01158429 19.29780126 -13.25 23.875 C-13.83990723 24.51703369 -14.42981445 25.15906738 -15.03759766 25.82055664 C-18.1734406 29.19431251 -21.31519586 32.2113302 -25 35 C-29.20499771 38.48337734 -33.19660742 42.0813531 -37 46 C-37.495 44.515 -37.495 44.515 -38 43 C-37.58492188 42.65710938 -37.16984375 42.31421875 -36.7421875 41.9609375 C-27.41098784 34.03527419 -18.52395859 25.25875565 -10.6640625 15.8671875 C-7.89456672 12.7596312 -4.79470951 9.98114541 -1.72265625 7.17578125 C0.34203874 4.56799189 0.36934334 3.24453918 0 0 Z " fill="#124587" transform="translate(467,317)"/>
<path d="M0 0 C0.66 0.33 1.32 0.66 2 1 C1.01 2.485 1.01 2.485 0 4 C1.58207497 5.75115168 3.16561229 7.50094278 4.75 9.25 C5.63171875 10.22453125 6.5134375 11.1990625 7.421875 12.203125 C9.00953089 13.92549109 10.6380655 15.61237159 12.328125 17.234375 C14 19 14 19 14 21 C14.61875 21.144375 15.2375 21.28875 15.875 21.4375 C18 22 18 22 20 23 C20 23.66 20 24.32 20 25 C21.32 25.33 22.64 25.66 24 26 C24 26.66 24 27.32 24 28 C25.11375 28.433125 25.11375 28.433125 26.25 28.875 C28.56739797 29.82302644 30.77917115 30.84845911 33 32 C33 32.66 33 33.32 33 34 C33.66 34 34.32 34 35 34 C36.35573748 35.31054623 37.68612831 36.64748503 39 38 C40.31558703 39.02323436 41.64377755 40.03126968 43 41 C38.36738517 40.4601088 35.05122572 38.40897743 31.25 35.875 C30.63817871 35.47337646 30.02635742 35.07175293 29.39599609 34.65795898 C18.79255959 27.62199474 18.79255959 27.62199474 15 24 C15 23.34 15 22.68 15 22 C14.43796875 21.7525 13.8759375 21.505 13.296875 21.25 C10.60907431 19.78725133 8.53594518 18.03195127 6.25 16 C5.45078125 15.29875 4.6515625 14.5975 3.828125 13.875 C2 12 2 12 2 10 C1.34 10 0.68 10 0 10 C-1.625 8 -1.625 8 -3 6 C-4.65 6.33 -6.3 6.66 -8 7 C-5.42215154 4.35247996 -3.08351902 2.05567935 0 0 Z " fill="#371E80" transform="translate(424,415)"/>
<path d="M0 0 C4.71914061 0.80362177 8.86422711 2.45874419 13.28125 4.2578125 C15.93582355 5.20493129 15.93582355 5.20493129 18.40625 4.4921875 C21.34916948 3.93374194 23.11331299 4.57080833 25.91601562 5.47070312 C30.2688702 6.57625476 34.78102493 6.5693765 39.25 6.75 C40.22324219 6.80542969 41.19648438 6.86085938 42.19921875 6.91796875 C49.0580261 7.21855393 55.305595 6.49894321 62 5 C56.48805223 10.51194777 45.58342316 10.32725081 38.125 10.375 C24.34039435 10.22989889 12.39179731 6.89994664 0 1 C0 0.67 0 0.34 0 0 Z " fill="#132057" transform="translate(467,456)"/>
<path d="M0 0 C3.71100218 2.47400145 4.2490015 4.34837764 5.9375 8.4375 C6.19764893 9.06712646 6.45779785 9.69675293 6.72583008 10.34545898 C7.49605423 12.22566304 8.25032805 14.11152121 9 16 C9.38671875 16.96164062 9.7734375 17.92328125 10.171875 18.9140625 C11.19758828 21.58880712 12.123416 24.27284977 13 27 C13.45052734 28.38445312 13.45052734 28.38445312 13.91015625 29.796875 C15.93781846 37.07759697 16.28085082 44.11379802 16.3125 51.625 C16.31797852 52.59800049 16.32345703 53.57100098 16.32910156 54.57348633 C16.25732897 61.61400655 16.25732897 61.61400655 14 65 C14.00523682 64.34515625 14.01047363 63.6903125 14.01586914 63.015625 C14.036827 60.01042667 14.0497195 57.00524379 14.0625 54 C14.07087891 52.97003906 14.07925781 51.94007813 14.08789062 50.87890625 C14.10608098 45.16713573 14.05466594 39.62488499 13 34 C12.34 33.67 11.68 33.34 11 33 C11.33 31.68 11.66 30.36 12 29 C11.01 28.67 10.02 28.34 9 28 C8.12109375 26.28515625 8.12109375 26.28515625 7.4375 24.0625 C7.19 23.25941406 6.9425 22.45632813 6.6875 21.62890625 C5.76645335 18.10694947 5.10943621 14.56109207 4.52734375 10.96875 C4.35332031 10.3190625 4.17929687 9.669375 4 9 C3.34 8.67 2.68 8.34 2 8 C1.3671875 6.15234375 1.3671875 6.15234375 0.875 3.9375 C0.70742188 3.20402344 0.53984375 2.47054688 0.3671875 1.71484375 C0.24601563 1.14894531 0.12484375 0.58304687 0 0 Z " fill="#003850" transform="translate(546,359)"/>
<path d="M0 0 C2.625 2.1875 2.625 2.1875 4 4 C3.34 4.66 2.68 5.32 2 6 C2 5.34 2 4.68 2 4 C0.63875 3.7834375 0.63875 3.7834375 -0.75 3.5625 C-3.21476956 3.13590527 -5.58847107 2.64925779 -8 2 C-8 1.34 -8 0.68 -8 0 C-8.763125 0.185625 -9.52625 0.37125 -10.3125 0.5625 C-13 1 -13 1 -16 0 C-20.47358474 -0.22747041 -24.02284734 -0.09464711 -28.3125 1.1875 C-29.529375 1.455625 -30.74625 1.72375 -32 2 C-33.73046875 0.55078125 -33.73046875 0.55078125 -35 -1 C-22.73385875 -4.16949927 -11.89650515 -5.07643077 0 0 Z " fill="#09658F" transform="translate(359,179)"/>
<path d="M0 0 C3.29148243 1.13499394 3.9959869 1.99283376 5.75 5.125 C6.1625 6.07375 6.575 7.0225 7 8 C9.46800047 6.84826645 11.04783565 5.95216435 13 4 C15.125 4.375 15.125 4.375 17 5 C15.42617053 6.65492374 13.84057098 8.29866024 12.25 9.9375 C10.92742187 11.31228516 10.92742187 11.31228516 9.578125 12.71484375 C7.09444545 14.91628699 6.11400443 15.42333251 3 16 C1.65080468 17.65385233 0.31866272 19.321702 -1 21 C-3.625 22.875 -3.625 22.875 -6 24 C-6.66 23.67 -7.32 23.34 -8 23 C-8 22.34 -8 21.68 -8 21 C-6.171875 19.5625 -6.171875 19.5625 -3.75 18 C-2.96109375 17.484375 -2.1721875 16.96875 -1.359375 16.4375 C0.72070886 15.17016414 2.80311715 14.0480542 5 13 C4.45859375 11.84371094 4.45859375 11.84371094 3.90625 10.6640625 C3.4421875 9.66117187 2.978125 8.65828125 2.5 7.625 C2.0359375 6.62726563 1.571875 5.62953125 1.09375 4.6015625 C0 2 0 2 0 0 Z " fill="#6932E5" transform="translate(393,376)"/>
<path d="M0 0 C0.45375 0.474375 0.9075 0.94875 1.375 1.4375 C2.93258204 3.09027808 2.93258204 3.09027808 5 4 C5.12375 4.639375 5.2475 5.27875 5.375 5.9375 C5.78556008 8.15666856 5.78556008 8.15666856 7.8125 9 C8.534375 9.33 9.25625 9.66 10 10 C12.25 12 12.25 12 14 14 C14 14.66 14 15.32 14 16 C14.99 16 15.98 16 17 16 C17.33 16.99 17.66 17.98 18 19 C20.54951047 20.46840117 20.54951047 20.46840117 23.5625 21.6875 C24.57441406 22.12449219 25.58632813 22.56148438 26.62890625 23.01171875 C27.41136719 23.33785156 28.19382812 23.66398437 29 24 C29 24.33 29 24.66 29 25 C24.1201118 25.58926952 21.04412629 23.60887803 17.125 21 C16.50584717 20.59426758 15.88669434 20.18853516 15.2487793 19.77050781 C8.80917418 15.41243404 3.4360054 10.07412876 0 3 C0 2.01 0 1.02 0 0 Z " fill="#774096" transform="translate(299,438)"/>
<path d="M0 0 C0.609375 1.83984375 0.609375 1.83984375 1 4 C-0.65090428 6.41739555 -2.32892311 8.41896634 -4.54296875 10.3359375 C-6.40610769 12.463812 -6.85981745 14.33609171 -7.5625 17.0625 C-8.78418362 21.76287596 -9.86849074 23.24566049 -14 26 C-13.835 25.2575 -13.67 24.515 -13.5 23.75 C-12.88074304 20.80993422 -12.88074304 20.80993422 -13 17 C-14.63260714 15.62517293 -16.30225062 14.29352333 -18 13 C-19.3125 10.75 -19.3125 10.75 -20 9 C-18.68 9.33 -17.36 9.66 -16 10 C-16 10.66 -16 11.32 -16 12 C-13.66785852 13.20628008 -11.50357861 14.1654738 -9 15 C-8.814375 14.195625 -8.62875 13.39125 -8.4375 12.5625 C-6.46767565 7.68076139 -3.34377814 4.02326247 0 0 Z " fill="#00578B" transform="translate(405,231)"/>
<path d="M0 0 C2.475 0.99 2.475 0.99 5 2 C5 2.66 5 3.32 5 4 C6.32 4.33 7.64 4.66 9 5 C9 5.66 9 6.32 9 7 C9.7425 7.28875 10.485 7.5775 11.25 7.875 C13.56739797 8.82302644 15.77917115 9.84845911 18 11 C18 11.66 18 12.32 18 13 C18.66 13 19.32 13 20 13 C21.35573748 14.31054623 22.68612831 15.64748503 24 17 C25.31558703 18.02323436 26.64377755 19.03126968 28 20 C23.36756033 19.46012921 20.0509182 17.40929154 16.25 14.875 C15.63817871 14.47265137 15.02635742 14.07030273 14.39599609 13.65576172 C3.05582021 6.12049365 3.05582021 6.12049365 0 3 C0 2.01 0 1.02 0 0 Z " fill="#291E6E" transform="translate(439,436)"/>
<path d="M0 0 C0.33 0 0.66 0 1 0 C1.33 21.45 1.66 42.9 2 65 C1.67 65 1.34 65 1 65 C-0.96661913 57.23717386 -1.19960287 49.96882847 -0.9765625 41.9921875 C-0.95153656 40.7855545 -0.92651062 39.57892151 -0.90072632 38.33572388 C-0.81913489 34.5151705 -0.72231107 30.69518203 -0.625 26.875 C-0.56669826 24.27085575 -0.50939642 21.66668891 -0.453125 19.0625 C-0.31364726 12.70802629 -0.16169142 6.35394522 0 0 Z " fill="#331C81" transform="translate(324,300)"/>
<path d="M0 0 C0.33 0 0.66 0 1 0 C1.33 1.98 1.66 3.96 2 6 C1.34 6 0.68 6 0 6 C0.185625 7.11375 0.37125 8.2275 0.5625 9.375 C1 13 1 13 0 15 C-0.66 15 -1.32 15 -2 15 C-2.87762957 24.93605892 -3.28651714 34.84670256 -3.5625 44.8125 C-3.60583832 46.29493013 -3.64945656 47.7773521 -3.69335938 49.25976562 C-3.7987877 52.83975588 -3.90047111 56.41984029 -4 60 C-4.33 60 -4.66 60 -5 60 C-5.05020622 55.41424069 -5.08609191 50.82864846 -5.10986328 46.24267578 C-5.11979437 44.68926195 -5.13334379 43.13586614 -5.15087891 41.58251953 C-5.30887167 27.2051781 -3.82891428 13.93724799 0 0 Z " fill="#132D6E" transform="translate(385,270)"/>
<path d="M0 0 C0.33 0 0.66 0 1 0 C1.67917498 28.71400906 1.67917498 28.71400906 -4 35 C-3.74863281 33.87851562 -3.74863281 33.87851562 -3.4921875 32.734375 C-3.28851562 31.74953125 -3.08484375 30.7646875 -2.875 29.75 C-2.56175781 28.28820312 -2.56175781 28.28820312 -2.2421875 26.796875 C-1.97348396 23.69378247 -2.48298903 22.63246022 -4 20 C-4.125 16.75 -4.125 16.75 -4 14 C-3.34 13.67 -2.68 13.34 -2 13 C-1.30662208 9.9600352 -1.30662208 9.9600352 -0.875 6.4375 C-0.70742188 5.23996094 -0.53984375 4.04242188 -0.3671875 2.80859375 C-0.24601563 1.88175781 -0.12484375 0.95492188 0 0 Z " fill="#0B5BA1" transform="translate(560,401)"/>
<path d="M0 0 C0.33 0 0.66 0 1 0 C2.15136362 8.18646731 2.11414983 16.31509354 2.0625 24.5625 C2.05747366 25.96679527 2.05291276 27.3710923 2.04882812 28.77539062 C2.03711593 32.18363903 2.02071372 35.5917964 2 39 C1.67 39 1.34 39 1 39 C-0.5003376 29.64968175 -1.1936808 20.53303082 -1.1875 11.0625 C-1.18814453 10.08522949 -1.18878906 9.10795898 -1.18945312 8.10107422 C-1.135099 1.135099 -1.135099 1.135099 0 0 Z " fill="#662C9C" transform="translate(290,360)"/>
<path d="M0 0 C0.66 0.66 1.32 1.32 2 2 C1.7578125 4.95703125 1.7578125 4.95703125 1.125 8.8125 C-0.05274401 16.60142278 -0.13767913 24.21342283 0.07470703 32.0793457 C0.09130371 32.93616943 0.10790039 33.79299316 0.125 34.67578125 C0.14820313 35.43802002 0.17140625 36.20025879 0.1953125 36.9855957 C0 39 0 39 -2 42 C-2.02506235 38.07138053 -2.04302799 34.14279321 -2.05493164 30.21411133 C-2.0623244 28.23452108 -2.07504274 26.25495299 -2.08789062 24.27539062 C-2.13851936 4.27703873 -2.13851936 4.27703873 0 0 Z " fill="#455FF3" transform="translate(383,285)"/>
<path d="M0 0 C4.67541878 2.48083446 8.47089071 5.0978564 12.32421875 8.73046875 C14.20781638 10.3299783 14.20781638 10.3299783 18 11 C14.37 15.62 10.74 20.24 7 25 C7 21.16235973 8.26535335 19.88513915 10.5 16.8125 C11.47453125 15.46091797 11.47453125 15.46091797 12.46875 14.08203125 C12.9740625 13.39496094 13.479375 12.70789063 14 12 C13.01 12 12.02 12 11 12 C10.67 11.34 10.34 10.68 10 10 C9.01 9.67 8.02 9.34 7 9 C4.3125 6.5625 4.3125 6.5625 2 4 C2 3.34 2 2.68 2 2 C1.34 2 0.68 2 0 2 C0 1.34 0 0.68 0 0 Z " fill="#025D88" transform="translate(400,206)"/>
<path d="M0 0 C0.66 0 1.32 0 2 0 C2.08040527 0.66531738 2.16081055 1.33063477 2.24365234 2.01611328 C2.61436773 5.05322948 2.99459591 8.08908275 3.375 11.125 C3.50132812 12.17171875 3.62765625 13.2184375 3.7578125 14.296875 C4.40544104 19.41314049 5.07899427 24.17242907 7 29 C6.01 28.67 5.02 28.34 4 28 C1.45725875 22.45163984 0.36812835 17.22490878 -0.25 11.1875 C-0.34023438 10.43791016 -0.43046875 9.68832031 -0.5234375 8.91601562 C-0.89457725 5.56677867 -1.0778656 3.2335968 0 0 Z " fill="#8034C2" transform="translate(326,385)"/>
<path d="M0 0 C0.99 0.33 1.98 0.66 3 1 C2.69463301 4.14656903 2.37951468 7.29208482 2.0625 10.4375 C1.97548828 11.33533203 1.88847656 12.23316406 1.79882812 13.15820312 C1.71181641 14.01220703 1.62480469 14.86621094 1.53515625 15.74609375 C1.456604 16.53685303 1.37805176 17.3276123 1.29711914 18.14233398 C1 20 1 20 0 21 C-0.23427778 23.01594582 -0.41336124 25.038474 -0.5625 27.0625 C-0.64628906 28.16722656 -0.73007812 29.27195312 -0.81640625 30.41015625 C-0.87699219 31.26480469 -0.93757813 32.11945313 -1 33 C-1.33 33 -1.66 33 -2 33 C-2.0292067 29.45835085 -2.04686814 25.91673303 -2.0625 22.375 C-2.07087891 21.37597656 -2.07925781 20.37695312 -2.08789062 19.34765625 C-2.1041178 14.44705014 -2.03614159 9.81501092 -1 5 C-0.814375 4.05125 -0.62875 3.1025 -0.4375 2.125 C-0.293125 1.42375 -0.14875 0.7225 0 0 Z " fill="#155DB6" transform="translate(417,286)"/>
<path d="M0 0 C1.65 1.32 3.3 2.64 5 4 C4 6 4 6 2.16259766 6.89624023 C-0.32331212 8.16501401 -1.72695055 9.60041939 -3.6015625 11.66015625 C-4.58382813 12.7265332 -4.58382813 12.7265332 -5.5859375 13.81445312 C-6.59527344 14.92723633 -6.59527344 14.92723633 -7.625 16.0625 C-8.96883034 17.53485957 -10.3150689 19.00502587 -11.6640625 20.47265625 C-12.25654785 21.12500244 -12.8490332 21.77734863 -13.45947266 22.44946289 C-15 24 -15 24 -17 25 C-17.33 24.01 -17.66 23.02 -18 22 C-17.2575 21.5875 -16.515 21.175 -15.75 20.75 C-11.9146451 18.30931961 -9.56849875 16.21452006 -7.625 12.0625 C-6.09309213 9.17544287 -5.29339104 8.26326601 -2.8125 6.375 C-1.884375 5.59125 -0.95625 4.8075 0 4 C0 2.68 0 1.36 0 0 Z " fill="#07355C" transform="translate(491,345)"/>
<path d="M0 0 C4.8646442 1.86001102 9.42783959 4.19787734 14.0625 6.5625 C16.67410265 7.84051832 19.28567219 8.96216878 22 10 C21.67 10.66 21.34 11.32 21 12 C16.83513802 12.30017023 14.34984273 11.45324946 10.6875 9.5 C9.80449219 9.0359375 8.92148437 8.571875 8.01171875 8.09375 C7.01591797 7.55234375 7.01591797 7.55234375 6 7 C6 6.34 6 5.68 6 5 C4.35 4.67 2.7 4.34 1 4 C0.67 2.68 0.34 1.36 0 0 Z " fill="#253791" transform="translate(470,415)"/>
<path d="M0 0 C0.66 0.33 1.32 0.66 2 1 C-6.74831055 5.93494441 -16.05931324 6.93624197 -26 6 C-26.99 5.34 -27.98 4.68 -29 4 C-27.67935547 3.90912109 -27.67935547 3.90912109 -26.33203125 3.81640625 C-25.17058594 3.73261719 -24.00914062 3.64882813 -22.8125 3.5625 C-21.08966797 3.44068359 -21.08966797 3.44068359 -19.33203125 3.31640625 C-16.47705842 3.04530098 -13.8008497 2.58697675 -11 2 C-8.6649595 1.72483974 -6.32904544 1.50155722 -3.98828125 1.28125 C-1.93034156 1.09747594 -1.93034156 1.09747594 0 0 Z " fill="#502A6E" transform="translate(358,459)"/>
<path d="M0 0 C0.66 0.33 1.32 0.66 2 1 C1.34 2.32 0.68 3.64 0 5 C-0.99 5 -1.98 5 -3 5 C-5.15665576 7.09147815 -5.15665576 7.09147815 -7.3125 9.75 C-10.64700374 13.59666608 -13.5789017 16.50604711 -18 19 C-18.66 18.67 -19.32 18.34 -20 18 C-14.57699552 10.70699398 -7.25471738 5.37702583 0 0 Z " fill="#166C80" transform="translate(442,193)"/>
<path d="M0 0 C0.66 0 1.32 0 2 0 C2 0.99 2 1.98 2 3 C-4.35051825 7.81099867 -11.34161779 8.31258703 -19 8 C-19 7.34 -19 6.68 -19 6 C-19.66 5.67 -20.32 5.34 -21 5 C-20.14277344 4.96261719 -19.28554688 4.92523438 -18.40234375 4.88671875 C-8.47183217 4.637491 -8.47183217 4.637491 0 0 Z " fill="#8238C0" transform="translate(359,415)"/>
<path d="M0 0 C4.95084352 2.93275774 8.00722306 6.12057853 11.375 10.75 C11.82488281 11.35199219 12.27476562 11.95398438 12.73828125 12.57421875 C13.83411708 14.04310508 14.91829713 15.52067512 16 17 C15.67 17.66 15.34 18.32 15 19 C10.69481536 16.81781878 8.79136576 14.58062943 6.375 10.4375 C3.85322221 6.11844552 3.85322221 6.11844552 0 3 C0 2.01 0 1.02 0 0 Z " fill="#29908F" transform="translate(520,323)"/>
<path d="M0 0 C2.44692202 1.04868087 4.00762186 2.00787592 5.875 3.9375 C8.3514245 6.34108849 10.87482753 7.57946706 14 9 C14 9.66 14 10.32 14 11 C14.66 11 15.32 11 16 11 C18.125 12.875 18.125 12.875 20 15 C20 15.66 20 16.32 20 17 C20.66 17.33 21.32 17.66 22 18 C21.34 18.66 20.68 19.32 20 20 C11.63371151 12.94975689 11.63371151 12.94975689 9 10 C9 9.34 9 8.68 9 8 C8.443125 7.79375 7.88625 7.5875 7.3125 7.375 C4.07498698 5.44999226 2.31768859 2.96149098 0 0 Z " fill="#01426A" transform="translate(426,276)"/>
<path d="M0 0 C0.33 0.66 0.66 1.32 1 2 C-0.1796875 4.4609375 -0.1796875 4.4609375 -1.875 7.375 C-4.11944887 11.16877469 -4.11944887 11.16877469 -5.5703125 15.2890625 C-5.71210938 15.85367187 -5.85390625 16.41828125 -6 17 C-6.66 17.33 -7.32 17.66 -8 18 C-8.91280138 20.57437581 -8.91280138 20.57437581 -9.625 23.5625 C-9.88539063 24.57441406 -10.14578125 25.58632813 -10.4140625 26.62890625 C-10.60742188 27.41136719 -10.80078125 28.19382812 -11 29 C-12.41655367 23.71383631 -12.91192107 19.16851589 -10.1875 14.25 C-8 11 -8 11 -6.53125 9.55859375 C-4.7881559 7.78437297 -3.60099501 5.93677556 -2.3125 3.8125 C-1.87550781 3.09707031 -1.43851562 2.38164062 -0.98828125 1.64453125 C-0.66214844 1.10183594 -0.33601563 0.55914062 0 0 Z " fill="#005E93" transform="translate(432,258)"/>
<path d="M0 0 C0.66 0.33 1.32 0.66 2 1 C1.34 1.66 0.68 2.32 0 3 C-0.7425 3.78375 -1.485 4.5675 -2.25 5.375 C-5.00513452 8.00490113 -7.79613561 9.95498018 -11 12 C-11.680625 12.5775 -12.36125 13.155 -13.0625 13.75 C-15.50630784 15.32665022 -17.1476726 15.23769395 -20 15 C-18.03917999 12.95981698 -16.05852796 11.22381499 -13.75 9.58984375 C-13.1415625 9.15736328 -12.533125 8.72488281 -11.90625 8.27929688 C-11.2771875 7.83650391 -10.648125 7.39371094 -10 6.9375 C-9.3709375 6.49083984 -8.741875 6.04417969 -8.09375 5.58398438 C-5.41759748 3.68743137 -2.72928756 1.81952504 0 0 Z " fill="#531C8F" transform="translate(383,399)"/>
<path d="M0 0 C0 0.66 0 1.32 0 2 C2.475 2.495 2.475 2.495 5 3 C4.67 3.99 4.34 4.98 4 6 C3.34515625 5.65066406 2.6903125 5.30132812 2.015625 4.94140625 C-5.05608055 1.41554176 -11.12001857 0.15127364 -19 0 C-16.57337008 -2.42662992 -14.65777286 -2.67815803 -11.30859375 -3.046875 C-7.27130293 -2.96489955 -3.70176943 -1.5166972 0 0 Z " fill="#015085" transform="translate(357,219)"/>
<path d="M0 0 C3.97115567 0.49639446 7.01152331 1.97141219 10.53125 3.8125 C15.5389581 6.22127099 20.79530962 8.06410907 26 10 C26 10.66 26 11.32 26 12 C19.38169853 10.58179254 13.41076082 8.45226679 7.375 5.4375 C6.75931152 5.13255615 6.14362305 4.8276123 5.50927734 4.51342773 C1.13147776 2.26295551 1.13147776 2.26295551 0 0 Z " fill="#4247CE" transform="translate(459,450)"/>
<path d="M0 0 C1 3 1 3 -0.546875 6.3203125 C-1.27052944 7.59468925 -2.00539868 8.86274776 -2.75 10.125 C-3.29140625 11.09373047 -3.29140625 11.09373047 -3.84375 12.08203125 C-6.61513799 16.87171266 -6.61513799 16.87171266 -10 18 C-8.45730076 13.27934033 -6.92205381 8.58335908 -5 4 C-4.01 4 -3.02 4 -2 4 C-1.34 2.68 -0.68 1.36 0 0 Z " fill="#66918E" transform="translate(548,275)"/>
<path d="M0 0 C1.69433918 3.0469629 2.49467112 5.82821466 3.125 9.25 C3.29257812 10.14203125 3.46015625 11.0340625 3.6328125 11.953125 C3.75398438 12.62859375 3.87515625 13.3040625 4 14 C4.99 14.33 5.98 14.66 7 15 C6.67 15.99 6.34 16.98 6 18 C6.66 18 7.32 18 8 18 C8 20.97 8 23.94 8 27 C4.52546629 23.24016733 3.59394167 18.88242411 2.3125 14.0625 C2.08755859 13.26392578 1.86261719 12.46535156 1.63085938 11.64257812 C0.55147076 7.68263267 -0.30978332 4.14439845 0 0 Z " fill="#271F72" transform="translate(383,344)"/>
<path d="M0 0 C3.61495307 0.62304398 6.78833042 1.63430705 10.1875 3 C15.46447939 4.97886727 20.38950038 5.75659438 26 6 C26 6.33 26 6.66 26 7 C15.69750675 7.82298023 8.82198198 6.42891199 0 1 C0 0.67 0 0.34 0 0 Z " fill="#C769F4" transform="translate(316,456)"/>
<path d="M0 0 C-1.26837104 3.55143892 -3.064412 4.73337813 -6.203125 6.65234375 C-10.01037331 9.50777998 -12.94821859 13.37504137 -16 17 C-16.66 16.67 -17.32 16.34 -18 16 C-18 15.34 -18 14.68 -18 14 C-16.49609375 12.51953125 -16.49609375 12.51953125 -14.4375 10.8125 C-10.89939256 7.82643769 -7.68586929 4.68187773 -4.54296875 1.28515625 C-3 0 -3 0 0 0 Z " fill="#23328A" transform="translate(447,346)"/>
<path d="M0 0 C4.70478962 3.42166518 8.27653164 7.57905197 12 12 C11.67 12.66 11.34 13.32 11 14 C8.36 11.36 5.72 8.72 3 6 C1.35 7.65 -0.3 9.3 -2 11 C-2.66 10.34 -3.32 9.68 -4 9 C-3.34 8.443125 -2.68 7.88625 -2 7.3125 C0.25492211 5.15937692 0.25492211 5.15937692 0.25 2.25 C0.1675 1.5075 0.085 0.765 0 0 Z " fill="#014B70" transform="translate(467,317)"/>
<path d="M0 0 C0.33 0 0.66 0 1 0 C1.16435547 1.07314453 1.16435547 1.07314453 1.33203125 2.16796875 C2.55715336 9.86731342 4.16698945 17.42355638 6 25 C5.34 24.67 4.68 24.34 4 24 C4 23.01 4 22.02 4 21 C3.34 21 2.68 21 2 21 C-0.23007556 13.5538155 -1.409845 7.69006362 0 0 Z " fill="#302E97" transform="translate(418,328)"/>
<path d="M0 0 C2.475 0.495 2.475 0.495 5 1 C5 1.66 5 2.32 5 3 C5.5775 3.185625 6.155 3.37125 6.75 3.5625 C10.16717779 5.74569692 11.24528583 8.36059284 13 12 C12.67 12.66 12.34 13.32 12 14 C11.5978125 13.0409375 11.5978125 13.0409375 11.1875 12.0625 C10.11332248 9.66868314 10.11332248 9.66868314 7 9 C5.17578125 7.1875 5.17578125 7.1875 3.3125 5 C2.68988281 4.278125 2.06726563 3.55625 1.42578125 2.8125 C0 1 0 1 0 0 Z " fill="#02649D" transform="translate(447,296)"/>
<path d="M0 0 C7.40906705 1.05843815 11.88832451 2.3502534 17 8 C17.763125 8.763125 18.52625 9.52625 19.3125 10.3125 C19.869375 10.869375 20.42625 11.42625 21 12 C20.67 12.66 20.34 13.32 20 14 C19.47792969 13.48050781 18.95585938 12.96101562 18.41796875 12.42578125 C12.76630467 7.07105224 7.24091365 3.81515895 0 1 C0 0.67 0 0.34 0 0 Z " fill="#68F7D3" transform="translate(519,186)"/>
<path d="M0 0 C0 2 0 4 0 6 C-3.96 6.66 -7.92 7.32 -12 8 C-11 5 -11 5 -8.49609375 3.61328125 C-7.48675781 3.18402344 -6.47742188 2.75476563 -5.4375 2.3125 C-4.42558594 1.87550781 -3.41367187 1.43851563 -2.37109375 0.98828125 C-1.58863281 0.66214844 -0.80617188 0.33601562 0 0 Z " fill="#AEF7E2" transform="translate(470,179)"/>
<path d="M0 0 C0.33 0 0.66 0 1 0 C1.29883729 7.47093223 0.15925507 14.63044989 -1 22 C-1.33 22 -1.66 22 -2 22 C-2.19620767 19.93831015 -2.38160753 17.87559002 -2.5625 15.8125 C-2.66691406 14.66394531 -2.77132813 13.51539063 -2.87890625 12.33203125 C-2.98859985 9.31368801 -2.74002389 6.91076064 -2 4 C-1.34 4 -0.68 4 0 4 C0 2.68 0 1.36 0 0 Z " fill="#1E3E95" transform="translate(329,240)"/>
<path d="M0 0 C5.29313319 1.51232377 10.39577756 3.37490873 13.375 8.25 C13.58125 8.8275 13.7875 9.405 14 10 C8.25 8.125 8.25 8.125 6 7 C6 6.34 6 5.68 6 5 C4.35 4.67 2.7 4.34 1 4 C0.67 2.68 0.34 1.36 0 0 Z " fill="#0C698D" transform="translate(362,182)"/>
<path d="M0 0 C0.99 0.66 1.98 1.32 3 2 C3.66 1.34 4.32 0.68 5 0 C4.39254603 4.85963179 2.27241033 8.7405518 0 13 C-0.66 12.34 -1.32 11.68 -2 11 C-1.65238379 7.24574497 -1.0165376 3.63049144 0 0 Z " fill="#AFF9E6" transform="translate(546,268)"/>
<path d="M0 0 C0.99 0.495 0.99 0.495 2 1 C2.59765625 3.14453125 2.59765625 3.14453125 3.0625 5.8125 C3.72000676 9.53353237 3.72000676 9.53353237 4.62109375 13.19921875 C5 15 5 15 4 17 C3.9603287 18.66619446 3.95615553 20.33391013 4 22 C3.34 22.33 2.68 22.66 2 23 C1.93941406 21.84242188 1.87882813 20.68484375 1.81640625 19.4921875 C1.73194498 17.95311543 1.64729982 16.41405345 1.5625 14.875 C1.52318359 14.11445313 1.48386719 13.35390625 1.44335938 12.5703125 C1.20490998 8.31490797 0.79769763 4.19629174 0 0 Z " fill="#46E9DF" transform="translate(522,218)"/>
<path d="M0 0 C-0.99 0 -1.98 0 -3 0 C-3.33 0.66 -3.66 1.32 -4 2 C-5.98 2 -7.96 2 -10 2 C-10.33 2.66 -10.66 3.32 -11 4 C-13.14453125 4.59765625 -13.14453125 4.59765625 -15.8125 5.0625 C-18.90912474 5.61595878 -21.95718935 6.19851375 -25 7 C-20.75336235 2.04558941 -13.33318751 0.23488165 -7.0625 -0.8125 C-4.36560622 -0.97761595 -2.52136091 -0.90768993 0 0 Z " fill="#344C51" transform="translate(488,175)"/>
<path d="M0 0 C0.45375 0.474375 0.9075 0.94875 1.375 1.4375 C2.93258204 3.09027808 2.93258204 3.09027808 5 4 C5.9296875 5.671875 5.9296875 5.671875 6.875 7.75 C8.54036468 11.23098784 10.44573104 14.08083548 13 17 C9.24896447 15.49115649 7.31556609 13.31985475 4.8125 10.1875 C3.77029297 8.90939453 3.77029297 8.90939453 2.70703125 7.60546875 C0.97710086 4.96504868 0.37347173 3.10483214 0 0 Z " fill="#432458" transform="translate(299,438)"/>
<path d="M0 0 C0.75 1.6875 0.75 1.6875 1 4 C-0.66085128 6.4319608 -2.39692466 8.44517069 -4.5625 10.4375 C-6.62389276 12.67814431 -7.72057318 15.2583711 -9 18 C-10 15 -10 15 -8.92578125 12.6953125 C-8.39339844 11.84710938 -7.86101562 10.99890625 -7.3125 10.125 C-6.48298828 8.80242187 -6.48298828 8.80242187 -5.63671875 7.453125 C-3.89399652 4.84112127 -2.05706331 2.37353458 0 0 Z " fill="#037BB2" transform="translate(405,231)"/>
<path d="M0 0 C0.680625 0.70125 1.36125 1.4025 2.0625 2.125 C4.74525288 4.83858912 7.65083924 7.20855121 10.64453125 9.5703125 C12 11 12 11 12 14 C7.80956374 12.38829375 4.76432622 9.46353814 2 6 C0.625 2.625 0.625 2.625 0 0 Z " fill="#302B8C" transform="translate(448,394)"/>
<path d="M0 0 C0.33 0 0.66 0 1 0 C2.17402193 7.33763707 2.09377123 14.58165418 2 22 C1.67 22 1.34 22 1 22 C-2.39805825 7.19417476 -2.39805825 7.19417476 0 0 Z " fill="#591DA5" transform="translate(324,343)"/>
<path d="M0 0 C0.66 0 1.32 0 2 0 C1.95875 0.78375 1.9175 1.5675 1.875 2.375 C2.01121153 6.32513432 2.79390986 9.81290202 3.7578125 13.6328125 C4.04251768 16.41557601 3.45652909 17.65876434 2 20 C0.3879491 13.23514355 -0.26618595 6.95041086 0 0 Z " fill="#BC5BF5" transform="translate(293,400)"/>
<path d="M0 0 C0 0.99 0 1.98 0 3 C-0.66 3 -1.32 3 -2 3 C-2.2165625 4.8253125 -2.2165625 4.8253125 -2.4375 6.6875 C-2.82780953 9.82670377 -3.32351856 12.9075134 -4 16 C-5.56640625 14.3203125 -5.56640625 14.3203125 -7 12 C-6.77734375 9.4921875 -6.77734375 9.4921875 -5.9375 6.875 C-5.67839844 6.00617188 -5.41929687 5.13734375 -5.15234375 4.2421875 C-3.79791284 1.60678634 -2.73210144 1.01104793 0 0 Z " fill="#114B95" transform="translate(335,220)"/>
<path d="M0 0 C0.66 0.33 1.32 0.66 2 1 C-4.31117397 8.91607732 -4.31117397 8.91607732 -9 11 C-9.66 10.67 -10.32 10.34 -11 10 C-11 9.34 -11 8.68 -11 8 C-9.1015625 6.5625 -9.1015625 6.5625 -6.625 5 C-4.15047838 3.42887516 -2.07616959 2.07616959 0 0 Z " fill="#561CA4" transform="translate(396,389)"/>
<path d="M0 0 C3.45281166 1.15093722 4.38082163 2.3205993 6.6875 5.0625 C7.31011719 5.79597656 7.93273437 6.52945312 8.57421875 7.28515625 C9.04472656 7.85105469 9.51523437 8.41695313 10 9 C8.68 9.33 7.36 9.66 6 10 C6 9.34 6 8.68 6 8 C5.38125 7.731875 4.7625 7.46375 4.125 7.1875 C2 6 2 6 0 3 C0 2.01 0 1.02 0 0 Z " fill="#00819D" transform="translate(483,280)"/>
<path d="M0 0 C1.8125 0.5 1.8125 0.5 4 2 C5.37162003 4.56072611 6.39748699 7.15636384 7 10 C6.67 10.99 6.34 11.98 6 13 C4.43926745 10.65890118 3.13626133 8.43666597 1.875 5.9375 C1.34519531 4.89916016 1.34519531 4.89916016 0.8046875 3.83984375 C0 2 0 2 0 0 Z " fill="#3F2294" transform="translate(393,376)"/>
<path d="M0 0 C0.33 0 0.66 0 1 0 C1.98410592 3.75749535 2.14124787 5.62569316 0.75 9.3125 C-1 12 -1 12 -4 13 C-3.52343588 11.20763933 -3.04366502 9.41613103 -2.5625 7.625 C-2.29566406 6.62726563 -2.02882813 5.62953125 -1.75390625 4.6015625 C-1 2 -1 2 0 0 Z " fill="#094D8E" transform="translate(390,257)"/>
<path d="M0 0 C0.66 0 1.32 0 2 0 C3.28222189 3.03070628 2.98589446 4.03596914 1.75 7.1875 C0 10 0 10 -3 11 C-2.69078116 9.54096742 -2.37751201 8.08279278 -2.0625 6.625 C-1.88847656 5.81289062 -1.71445312 5.00078125 -1.53515625 4.1640625 C-1 2 -1 2 0 0 Z " fill="#114589" transform="translate(300,198)"/>
<path d="M0 0 C0.66 0.33 1.32 0.66 2 1 C1.01 2.485 1.01 2.485 0 4 C-0.28875 4.680625 -0.5775 5.36125 -0.875 6.0625 C-2.26076436 8.44909418 -3.51357906 8.91219084 -6 10 C-6.66 10.66 -7.32 11.32 -8 12 C-7.40312566 8.65750371 -6.26396123 6.53563658 -4 4 C-3.34 4 -2.68 4 -2 4 C-1.34 2.68 -0.68 1.36 0 0 Z " fill="#063763" transform="translate(310,186)"/>
<path d="M0 0 C0.99 0.33 1.98 0.66 3 1 C2.360625 1.268125 1.72125 1.53625 1.0625 1.8125 C-1.33131686 2.88667752 -1.33131686 2.88667752 -2 6 C-1.34 6.33 -0.68 6.66 0 7 C-3.3 7 -6.6 7 -10 7 C-6.71301551 3.71301551 -4.13409279 2.06704639 0 0 Z " fill="#4C8080" transform="translate(460,182)"/>
<path d="M0 0 C3.43772727 3.43772727 3.97127774 7.10960984 4.125 11.875 C4.08375 12.90625 4.0425 13.9375 4 15 C3.34 14.67 2.68 14.34 2 14 C2.33 12.68 2.66 11.36 3 10 C2.01 9.67 1.02 9.34 0 9 C0 6.03 0 3.06 0 0 Z " fill="#005076" transform="translate(555,378)"/>
<path d="M0 0 C0.66 0.66 1.32 1.32 2 2 C1.81864449 4.76713403 1.5356614 7.3919776 1.125 10.125 C1.02058594 10.87910156 0.91617187 11.63320313 0.80859375 12.41015625 C0.54895402 14.27484156 0.27574971 16.13762887 0 18 C-0.66 18 -1.32 18 -2 18 C-1.85946128 15.37461716 -1.71281053 12.74982573 -1.5625 10.125 C-1.52318359 9.37863281 -1.48386719 8.63226563 -1.44335938 7.86328125 C-1.11328125 2.2265625 -1.11328125 2.2265625 0 0 Z " fill="#3069EA" transform="translate(383,285)"/>
<path d="M0 0 C1.8125 0.5 1.8125 0.5 4 2 C5.37162003 4.56072611 6.39748699 7.15636384 7 10 C6.67 10.99 6.34 11.98 6 13 C4.99491199 11.21118264 3.99607264 9.41885304 3 7.625 C2.1646875 6.12839844 2.1646875 6.12839844 1.3125 4.6015625 C0 2 0 2 0 0 Z " fill="#08ACBD" transform="translate(541,352)"/>
<path d="M0 0 C1.31896465 0.92838287 2.62998689 1.86805732 3.9375 2.8125 C4.66839844 3.33457031 5.39929688 3.85664063 6.15234375 4.39453125 C8 6 8 6 9 9 C7.68 9 6.36 9 5 9 C0 3.88636364 0 3.88636364 0 0 Z " fill="#00486F" transform="translate(448,245)"/>
<path d="M0 0 C-2.33539809 1.55693206 -4.57968756 2.90200646 -7.0625 4.1875 C-7.75472656 4.55230469 -8.44695312 4.91710937 -9.16015625 5.29296875 C-9.76730469 5.52628906 -10.37445313 5.75960937 -11 6 C-11.66 5.67 -12.32 5.34 -13 5 C-12 2 -12 2 -10.4375 0.8125 C-6.88877617 -0.37040794 -3.73298379 -0.12443279 0 0 Z " fill="#1E7580" transform="translate(485,213)"/>
<path d="M0 0 C4.10958767 1.45044271 7.43258745 3.51110752 11 6 C7.98968256 6.93423645 7.13349732 7.04449911 4 6 C4 5.34 4 4.68 4 4 C3.34 4 2.68 4 2 4 C1.34 2.68 0.68 1.36 0 0 Z " fill="#09506E" transform="translate(374,189)"/>
<path d="M0 0 C-1.41166886 0.98635837 -2.82956184 1.96381255 -4.25 2.9375 C-5.43335938 3.75541016 -5.43335938 3.75541016 -6.640625 4.58984375 C-8.82636993 5.89622441 -10.5153801 6.54980511 -13 7 C-11.81017347 4.24852615 -10.7692349 2.41686554 -8.08984375 0.96484375 C-2.46215596 -1.23107798 -2.46215596 -1.23107798 0 0 Z " fill="#4E2275" transform="translate(385,445)"/>
<path d="M0 0 C0.5775 0.226875 1.155 0.45375 1.75 0.6875 C-3.54230769 5.61057692 -3.54230769 5.61057692 -7.125 6 C-8.176875 5.8453125 -8.176875 5.8453125 -9.25 5.6875 C-3.38551402 -0.47021028 -3.38551402 -0.47021028 0 0 Z " fill="#6F28B2" transform="translate(372.25,408.3125)"/>
<path d="M0 0 C0.33 0 0.66 0 1 0 C1.04898437 0.65226562 1.09796875 1.30453125 1.1484375 1.9765625 C1.57242229 6.93279853 2.15665573 11.33019451 4 16 C1 15 1 15 0.05078125 13.15234375 C-0.19285156 12.42144531 -0.43648438 11.69054687 -0.6875 10.9375 C-0.93886719 10.20402344 -1.19023437 9.47054688 -1.44921875 8.71484375 C-1.63097656 8.14894531 -1.81273437 7.58304687 -2 7 C-1.34 7 -0.68 7 0 7 C0 4.69 0 2.38 0 0 Z " fill="#612C93" transform="translate(329,398)"/>
<path d="M0 0 C3.21524305 1.40844718 5.32183868 3.10344786 7.75 5.625 C8.67039062 6.57246094 8.67039062 6.57246094 9.609375 7.5390625 C10.29773438 8.26222656 10.29773438 8.26222656 11 9 C10.01 9.33 9.02 9.66 8 10 C4.78509073 7.85672716 3.85390587 6.30478872 2 3 C1.34 2.01 0.68 1.02 0 0 Z " fill="#013959" transform="translate(457,254)"/>
<path d="M0 0 C0.33 0.99 0.66 1.98 1 3 C-0.36328125 5.0078125 -0.36328125 5.0078125 -2.3125 7.125 C-2.94800781 7.82882813 -3.58351563 8.53265625 -4.23828125 9.2578125 C-6 11 -6 11 -8 12 C-6.59023295 8.96147295 -4.91129772 6.4060405 -2.875 3.75 C-2.06675781 2.69039062 -2.06675781 2.69039062 -1.2421875 1.609375 C-0.83226562 1.07828125 -0.42234375 0.5471875 0 0 Z " fill="#1792B9" transform="translate(421,212)"/>
<path d="M0 0 C2.33524782 2.25740623 4.18705073 4.2805761 6 7 C5.67 7.99 5.34 8.98 5 10 C1.32769295 6.92000054 0.43197635 4.7517398 0 0 Z " fill="#567676" transform="translate(549,194)"/>
<path d="M0 0 C0.66 0.33 1.32 0.66 2 1 C0.47005208 2.23697917 -1.05989583 3.47395833 -2.58984375 4.7109375 C-4.13266437 5.9666391 -4.13266437 5.9666391 -5 8 C-6.32 7.67 -7.64 7.34 -9 7 C-6.77515647 3.48708916 -4.90265724 2.33511958 -1 1 C-0.67 0.67 -0.34 0.34 0 0 Z " fill="#282E85" transform="translate(459,383)"/>
<path d="M0 0 C4.28477792 2.30718811 7.72291137 4.32966073 11 8 C4.35384615 6.52307692 4.35384615 6.52307692 2.5625 3.875 C2.376875 3.25625 2.19125 2.6375 2 2 C1.34 2 0.68 2 0 2 C0 1.34 0 0.68 0 0 Z " fill="#033C58" transform="translate(400,206)"/>
<path d="M0 0 C5.27315333 0.4452885 10.01770224 1.08373163 15 3 C11.84535201 4.05154933 10.19262346 3.97975572 6.9375 3.625 C6.05964844 3.53476563 5.18179687 3.44453125 4.27734375 3.3515625 C2 3 2 3 0 2 C0 1.34 0 0.68 0 0 Z " fill="#4EEFCF" transform="translate(503,182)"/>
<path d="M0 0 C3.91402949 1.26941497 5.79072873 2.51167694 8 6 C7.01 6.495 7.01 6.495 6 7 C6 6.34 6 5.68 6 5 C4.35 4.67 2.7 4.34 1 4 C0.67 2.68 0.34 1.36 0 0 Z " fill="#303AA2" transform="translate(470,415)"/>
<path d="M0 0 C-0.33 0.66 -0.66 1.32 -1 2 C-6.28 1.67 -11.56 1.34 -17 1 C-17 0.67 -17 0.34 -17 0 C-5.47835991 -1.33257403 -5.47835991 -1.33257403 0 0 Z " fill="#38B8B4" transform="translate(513,209)"/>
<path d="M0 0 C0 0.99 0 1.98 0 3 C-2.1875 4.75 -2.1875 4.75 -5 6 C-7.8125 5.6875 -7.8125 5.6875 -10 5 C-9.4225 4.731875 -8.845 4.46375 -8.25 4.1875 C-5.94252104 3.04946754 -5.94252104 3.04946754 -3.875 1.375 C-2 0 -2 0 0 0 Z " fill="#5F2792" transform="translate(361,415)"/>
<path d="M0 0 C5.78461538 3.32307692 5.78461538 3.32307692 6.875 6.75 C6.936875 7.86375 6.936875 7.86375 7 9 C5.82460004 8.07347299 4.65989423 7.13336613 3.5 6.1875 C2.52546875 5.40439453 2.52546875 5.40439453 1.53125 4.60546875 C0 3 0 3 0 0 Z " fill="#46B8AE" transform="translate(520,323)"/>
<path d="M0 0 C1.26694663 2.28050393 2.01923072 4.10336512 2.5 6.6875 C2.665 7.450625 2.83 8.21375 3 9 C3.66 9.33 4.32 9.66 5 10 C4.01 10.33 3.02 10.66 2 11 C-1.07692308 4.6 -1.07692308 4.6 -0.6875 1.5625 C-0.460625 1.046875 -0.23375 0.53125 0 0 Z " fill="#372692" transform="translate(424,353)"/>
<path d="M0 0 C3.34243648 1.89404734 3.97997149 2.94091591 5.25 6.6875 C5.4975 7.780625 5.745 8.87375 6 10 C2.46413986 6.82679218 0.41421969 4.83256305 0 0 Z " fill="#1DB2D7" transform="translate(521,337)"/>
<path d="M0 0 C1.32 0.33 2.64 0.66 4 1 C2.76115681 1.72767003 1.50831659 2.43154815 0.25 3.125 C-0.79414063 3.71667969 -0.79414063 3.71667969 -1.859375 4.3203125 C-4 5 -4 5 -6.265625 4.1171875 C-6.83796875 3.74851562 -7.4103125 3.37984375 -8 3 C-5.36 2.67 -2.72 2.34 0 2 C0 1.34 0 0.68 0 0 Z " fill="#B959F4" transform="translate(357,457)"/>
<path d="M0 0 C0.33 0 0.66 0 1 0 C1.33 3.63 1.66 7.26 2 11 C1.34 11 0.68 11 0 11 C-1.28571429 3.57142857 -1.28571429 3.57142857 0 0 Z " fill="#9837EC" transform="translate(325,373)"/>
<path d="M0 0 C1.875 0.625 1.875 0.625 4 2 C5.25 5.125 5.25 5.125 6 8 C5.01 7.34 4.02 6.68 3 6 C3 5.34 3 4.68 3 4 C2.01 3.67 1.02 3.34 0 3 C0 2.01 0 1.02 0 0 Z " fill="#01507F" transform="translate(454,302)"/>
<path d="M0 0 C0.33 0 0.66 0 1 0 C1.05447047 1.41623216 1.09300508 2.83308191 1.125 4.25 C1.14820313 5.03890625 1.17140625 5.8278125 1.1953125 6.640625 C0.9828378 9.20731941 0.28654105 10.7916067 -1 13 C-2.20577428 8.05632546 -1.6290678 4.79137588 0 0 Z " fill="#2771EB" transform="translate(329,231)"/>
<path d="M0 0 C0 0.99 0 1.98 0 3 C-1.53125 4.38671875 -1.53125 4.38671875 -3.5 5.6875 C-4.47453125 6.34298828 -4.47453125 6.34298828 -5.46875 7.01171875 C-5.9740625 7.33785156 -6.479375 7.66398438 -7 8 C-7 7.01 -7 6.02 -7 5 C-5.46875 3.61328125 -5.46875 3.61328125 -3.5 2.3125 C-2.8503125 1.87550781 -2.200625 1.43851563 -1.53125 0.98828125 C-1.0259375 0.66214844 -0.520625 0.33601562 0 0 Z " fill="#0489E0" transform="translate(317,183)"/>
<path d="M0 0 C0.33 0.66 0.66 1.32 1 2 C0.22265625 3.7265625 0.22265625 3.7265625 -0.9375 5.625 C-1.618125 6.73875 -2.29875 7.8525 -3 9 C-3.99 8.67 -4.98 8.34 -6 8 C-4.02 5.36 -2.04 2.72 0 0 Z " fill="#22B9DD" transform="translate(507,275)"/>
<path d="M0 0 C0.99 0.33 1.98 0.66 3 1 C1.35 2.98 -0.3 4.96 -2 7 C-2.66 6.34 -3.32 5.68 -4 5 C-2.68 3.35 -1.36 1.7 0 0 Z " fill="#1A89AA" transform="translate(452,230)"/>
<path d="M0 0 C2.31 0.33 4.62 0.66 7 1 C7 1.99 7 2.98 7 4 C7.66 4.33 8.32 4.66 9 5 C8.01 5 7.02 5 6 5 C6 4.34 6 3.68 6 3 C5.38125 2.87625 4.7625 2.7525 4.125 2.625 C2 2 2 2 0 0 Z " fill="#0977A3" transform="translate(393,204)"/>
<path d="M0 0 C-2.31856917 1.54571278 -4.50638429 2.79618552 -7 4 C-7 2.68 -7 1.36 -7 0 C-4.3333581 -1.33332095 -2.83319697 -0.67102033 0 0 Z " fill="#5CD9DC" transform="translate(457,189)"/>
<path d="M0 0 C1.08667969 0.29197266 1.08667969 0.29197266 2.1953125 0.58984375 C2.74960937 0.74582031 3.30390625 0.90179688 3.875 1.0625 C3.875 1.7225 3.875 2.3825 3.875 3.0625 C2.3949159 2.94887738 0.91589926 2.82127092 -0.5625 2.6875 C-1.38621094 2.61789062 -2.20992188 2.54828125 -3.05859375 2.4765625 C-3.74050781 2.33992188 -4.42242187 2.20328125 -5.125 2.0625 C-5.455 1.4025 -5.785 0.7425 -6.125 0.0625 C-3.57797384 -1.21101308 -2.6967055 -0.73941925 0 0 Z " fill="#3852D2" transform="translate(491.125,460.9375)"/>
<path d="M0 0 C0.99 0 1.98 0 3 0 C1.63016497 3.16115776 1.0109362 3.9927092 -2 6 C-1.125 1.125 -1.125 1.125 0 0 Z " fill="#264CB1" transform="translate(444,346)"/>
<path d="M0 0 C1.32342458 3.97027374 0.36639254 6.11656858 -1 10 C-1.99 10.495 -1.99 10.495 -3 11 C-2.32829194 7.1936543 -1.27253436 3.64793184 0 0 Z " fill="#39DADF" transform="translate(522,245)"/>
<path d="M0 0 C2.375 0.25 2.375 0.25 5 1 C6.3125 3.0625 6.3125 3.0625 7 5 C5.68 4.67 4.36 4.34 3 4 C3 3.34 3 2.68 3 2 C2.01 1.67 1.02 1.34 0 1 C0 0.67 0 0.34 0 0 Z " fill="#2F918F" transform="translate(515,213)"/>
</svg>
